<?xml version="1.0" standalone="no"?>
<!DOCTYPE svg PUBLIC "-//W3C//DTD SVG 20010904//EN"
 "http://www.w3.org/TR/2001/REC-SVG-20010904/DTD/svg10.dtd">
<svg version="1.0" xmlns="http://www.w3.org/2000/svg"
 width="598.000000pt" height="273.000000pt" viewBox="0 0 598.000000 273.000000"
 preserveAspectRatio="xMidYMid meet">

<g transform="translate(0.000000,273.000000) scale(0.100000,-0.100000)"
fill="#000000" stroke="none">
<path d="M3371 2633 c-6 -21 -11 -43 -11 -50 0 -15 -68 -214 -76 -222 -3 -3
-81 -8 -172 -11 l-167 -5 65 -47 c36 -26 70 -51 76 -56 5 -5 32 -26 60 -47 27
-20 52 -43 56 -49 6 -11 -41 -185 -71 -259 -19 -49 -15 -60 17 -42 34 20 73
48 155 113 36 29 71 52 79 52 17 0 167 -98 216 -141 18 -16 39 -29 47 -29 18
0 18 1 4 37 -6 15 -24 75 -40 133 -16 58 -32 111 -34 119 -7 17 47 66 157 143
48 34 85 65 82 70 -3 4 -72 8 -153 8 -131 0 -150 2 -164 18 -10 10 -17 24 -17
31 0 7 -13 51 -29 99 -16 48 -34 106 -40 130 -14 52 -27 53 -40 5z"/>
<path d="M2275 2455 c-160 -29 -180 -35 -330 -95 -186 -75 -230 -98 -445 -239
-183 -119 -446 -372 -651 -626 -74 -91 -227 -307 -264 -370 -16 -27 -45 -75
-64 -105 -20 -31 -41 -64 -48 -75 -90 -147 -114 -187 -146 -247 -21 -38 -36
-74 -33 -81 2 -7 8 -2 11 11 4 12 10 22 14 22 7 0 71 86 71 96 0 3 6 11 12 18
7 8 38 48 68 91 88 122 209 285 263 350 27 33 54 67 60 75 37 47 106 127 128
149 14 14 47 51 74 81 108 125 336 348 413 403 16 12 54 41 83 65 116 91 215
156 334 219 22 12 65 34 95 50 209 112 503 188 773 200 107 4 145 9 137 17 -7
7 -84 12 -218 13 -182 2 -223 -1 -337 -22z"/>
<path d="M3115 1551 c-164 -16 -270 -167 -235 -334 23 -111 115 -196 257 -239
162 -48 205 -100 164 -193 -15 -33 -27 -46 -48 -50 -15 -4 -34 -9 -42 -11 -7
-2 -30 0 -50 6 -40 11 -76 55 -92 114 -6 21 -16 39 -23 42 -7 3 -53 1 -102 -3
l-89 -8 1 -51 c2 -55 30 -129 70 -181 85 -111 348 -132 477 -37 90 66 135 176
124 302 -4 34 -15 82 -25 105 -20 44 -87 117 -107 117 -7 0 -18 6 -24 14 -6 7
-50 26 -98 41 -135 43 -141 46 -168 71 -20 19 -24 29 -18 56 12 64 61 88 129
65 29 -9 43 -23 63 -62 27 -49 28 -50 72 -48 24 1 68 5 97 8 49 6 52 8 52 35
0 16 -9 52 -20 79 -52 133 -161 181 -365 162z"/>
<path d="M1297 1533 c-4 -3 -7 -46 -7 -95 l0 -88 169 0 c102 0 181 -4 198 -11
16 -6 22 -13 16 -16 -7 -3 -13 -11 -13 -18 0 -8 -6 -18 -14 -22 -7 -4 -24 -26
-38 -48 -14 -22 -59 -83 -99 -136 -41 -53 -84 -109 -96 -125 -46 -62 -114
-150 -135 -177 -19 -24 -24 -43 -27 -118 -2 -61 1 -94 9 -104 11 -13 63 -15
339 -15 179 0 336 3 349 6 21 6 22 12 22 94 0 71 -3 89 -16 94 -9 3 -108 6
-220 6 -169 0 -204 2 -204 14 0 11 214 305 291 400 106 132 126 170 134 259 5
55 4 82 -5 92 -11 13 -62 15 -330 15 -174 0 -320 -3 -323 -7z"/>
<path d="M2104 1529 c-4 -7 -6 -224 -5 -483 1 -358 4 -472 14 -478 21 -13 601
-10 615 4 13 13 17 135 6 176 -6 22 -7 22 -204 22 -197 0 -198 0 -204 23 -8
32 -7 160 2 174 5 8 61 13 187 15 l180 3 0 90 0 90 -175 3 c-150 2 -177 5
-187 19 -18 23 -17 131 1 148 11 11 57 15 203 17 l188 3 0 90 0 90 -307 3
c-227 2 -309 -1 -314 -9z"/>
<path d="M3626 1531 c-9 -14 -9 -202 1 -212 4 -4 58 -10 118 -11 l110 -3 7
-80 c3 -44 5 -209 3 -367 -3 -246 -1 -287 12 -292 25 -10 173 -7 194 4 18 10
19 26 19 366 0 195 2 360 5 365 4 5 51 9 106 9 139 0 139 0 139 113 0 59 -4
97 -12 105 -14 14 -693 18 -702 3z"/>
</g>
</svg>
